<svg id="Layer_1" data-name="Layer 1" xmlns="http://www.w3.org/2000/svg" xmlns:xlink="http://www.w3.org/1999/xlink" viewBox="0 0 108.72 17.14"><defs><style>.cls-1{fill:url(#linear-gradient);}.cls-2{fill:#00447c;}.cls-3{fill:url(#linear-gradient-2);}</style><linearGradient id="linear-gradient" x1="316.32" y1="211.22" x2="386.95" y2="211.22" gradientUnits="userSpaceOnUse"><stop offset="0" stop-color="#00447c"/><stop offset="0.5" stop-color="#fff"/><stop offset="1" stop-color="#00447c"/></linearGradient><linearGradient id="linear-gradient-2" x1="4507.01" y1="4692.03" x2="4656.91" y2="4692.03" gradientTransform="translate(-1825.08 -2002.25) scale(0.48)" xlink:href="#linear-gradient"/></defs><title>RENMARK-Logo-no-text</title><path class="cls-1" d="M368.66,210.83,386.9,212l0,.1-.14.14-20.14-.66-10.5-.19-11.45,0-20,.33-8.27.38c0-.09-.19,0-.19-.14l.09-.09,20.76-1.09A217.73,217.73,0,0,1,368.66,210.83Z" transform="translate(-297.63 -210.23)"/><path class="cls-2" d="M348.33,212.15c0,.38-.57.29-.52.71,1.19,2.47,2.56,4.8,3.8,7.22,1.47-2.37,2.8-4.75,4.23-7.22a.4.4,0,0,0-.29-.43c-.14,0-.38,0-.33-.24.09-.38.29,0,.52-.1,1.52,0,3.23,0,4.7,0,.14.1-.09.14,0,.24a.68.68,0,0,0-.62.43l-.24,11.4c.09.33-.14,1,.52,1.09.14,0,.14.14.19.24l-.14.1-4.18-.1c0-.33.57-.28.62-.66.09-2.57.09-5.7.09-8.22-1.81,3-3.56,6-5.37,9-1.66-2.95-3.23-6-4.84-9l-.09.14-.09,8c0,.48.76.24.57.71h-4c-.24-.48.48-.19.57-.62l.19-12.06c0-.52-.86-.29-.57-.76a45.42,45.42,0,0,0,5.08-.09S348.29,212.11,348.33,212.15Z" transform="translate(-297.63 -210.23)"/><path class="cls-2" d="M391.51,212.2a27.16,27.16,0,0,0,3.94-.1.63.63,0,0,1,.29.24c-.14.28-.62.28-.71.62v4.89c1.09-.9,2.09-1.61,3.23-2.56a30.45,30.45,0,0,0,2.9-2.37c0-.48-1.09-.24-.52-.76,1.76.1,3.71.1,5.51.1.33.52-.52.19-.66.52-2,1.71-4.18,3.23-6.17,4.94,2.18,2.56,4.08,5.08,6.32,7.5.19.29.86,0,.71.48-1.85.1-3.56,0-5.37,0-.24-.48.52-.19.62-.62-.19-.62-1-.9-1.09-1.52-1.24-1.33-2.33-2.75-3.51-4.13l-2,1.62c0,1.28,0,2.61,0,3.9,0,.47.81.28.62.76h-4.42s-.09-.19,0-.29.52,0,.67-.33c.19-4,0-8,.19-12.11-.14-.52-.71-.19-.76-.71C391.27,212.11,391.37,212.11,391.51,212.2Z" transform="translate(-297.63 -210.23)"/><path class="cls-2" d="M325.25,215.72c0,.1-.09.14-.19.14-.19-.33-.24-.57-.62-.67l-6.89,0-.09.1,0,2.38.14.09,4.51-.09c.1-.19.38-.33.29-.57h.29c0,1.14,0,2.23,0,3.23-.43,0-.33-.57-.76-.66l-4.37,0a15.41,15.41,0,0,0,0,2.56c2.42.09,5,.09,7.55,0,.14-.1,0-.66.43-.48V225c-.33.09-.33-.33-.47-.52-3.37-.24-7.36,0-11-.14,0-.29.19-.24.33-.33l.29-.43.14-9.74c-.09-.38-.76-.24-.62-.67l10.4,0c.52,0,.38-.66.76-.66C325.34,213.58,325.15,214.58,325.25,215.72Z" transform="translate(-297.63 -210.23)"/><path class="cls-2" d="M331.66,213.2c.14.33-.81.47-.33.95l6.13,6c.14-2.14.09-4.09.14-6.27,0-.43-.67-.14-.57-.62h3.8c.1.14-.09.33-.19.33a.51.51,0,0,0-.47.43c-.14,3.18-.09,6.27-.14,9.6,0,.48.86.33.62.76l-4,0,0-.1c.09-.24.47-.09.47-.43l-.09-.33-6.51-6.32c-.14,1.71-.1,3.52-.14,5.22l.14,1.47.57.29-.1.14-3.71.09c-.09-.19,0-.28.14-.38s.33-.14.43-.29c0-3.18.09-6.84,0-10-.14-.19-.62-.09-.52-.43l.09-.1Z" transform="translate(-297.63 -210.23)"/><path class="cls-2" d="M312,225l-3.71-5.08.09-.09a4.32,4.32,0,0,0,3.23-1.85,5,5,0,0,0-.19-4.42,4.29,4.29,0,0,0-3.13-1.57c-3.33,0-6.65,0-10.4-.1-.33.48.38.29.48.67l-.14,12.21c0,.38-.71.24-.57.62h4.23c.14-.43-.67-.19-.57-.76l.09-4.56h3.52l3.23,4.56.09.33a.43.43,0,0,1-.38.19c-.19,0-.24.14-.19.33h5C312.9,225,312.18,225.36,312,225Zm-3.85-7.5c-.29-.09-.38.24-.67.19H301.4c0-1.14,0-2.33,0-3.47,2-.1,4.13,0,6.27,0,.52.19,1.24.48,1.28,1.14a2.31,2.31,0,0,1-.14,1.38C308.81,217.14,308.43,217.38,308.15,217.52Z" transform="translate(-297.63 -210.23)"/><path class="cls-2" d="M370.28,214.58l0-.52c.14-.19.24-.38.48-.43s.14-.29,0-.33h-4.32c0,.48.76.38.62,1-1,2.52-2.47,4.89-3.61,7.31a16.37,16.37,0,0,1-1.42,2.52c-.14.09-.57,0-.43.33h4l.14,0c0-.14,0-.24-.19-.19s-.47-.29-.47-.52a8.34,8.34,0,0,1,1-1.95l4.94.09c.29.66,1,1.33.9,2-.14.38-.76.24-.71.57l4.7,0v-.24a1.29,1.29,0,0,1-.76-.38ZM366.81,220c.43-1,1-2.14,1.57-3.23.62,1,1,2.18,1.66,3.23Z" transform="translate(-297.63 -210.23)"/><path class="cls-2" d="M388.8,223.79c-.57-.67-1.09-1.52-1.71-2.23-.29-.67-1-1.09-1.14-1.76a4.17,4.17,0,0,0,2.52-1.19,3.4,3.4,0,0,0,.62-3.28,3.32,3.32,0,0,0-2-1.76c-3.14-.38-7-.14-10.26-.29,0,.14,0,.38.24.33.29.14.57.38.47.76,0,3.18-.09,6.36-.14,9.45a1.07,1.07,0,0,1-.76.38s0,.14,0,.19l4.18,0c.14-.48-.57-.24-.66-.67l0-3.71.09-.14,2.61,0a32,32,0,0,1,2.14,3,1.65,1.65,0,0,1,.48.95c-.14.1-.24.38-.43.24,0,.09-.38.19-.14.38h4.8l0-.24A6,6,0,0,1,388.8,223.79Zm-3.28-6.08a48.1,48.1,0,0,1-5.27.14c0-.85,0-1.66,0-2.42l5.32.14c.29.19.62.47.62.81A1.19,1.19,0,0,1,385.52,217.71Z" transform="translate(-297.63 -210.23)"/><path class="cls-3" d="M358.45,226.26l19.09-.28,9.26-.33.14.14-.14.14-12.25.57-8.26.33-14.3.52c-3.94.09-8.22-.29-12.06-.38l-22.66-1.14a5.51,5.51,0,0,1-1.52-.14l.33-.14,22.85.66Z" transform="translate(-297.63 -210.23)"/></svg>